<mxfile host="app.diagrams.net" modified="2025-08-21T14:03:23.749Z" agent="5.0" version="24.7.17" etag="generated">
  <diagram name="Player Frontend Flow" id="player-frontend-flow">
    
<mxGraphModel dx="1422" dy="794" grid="1" gridSize="10" guides="1" tooltips="1" connect="1" arrows="1" fold="1" page="1" pageScale="1" pageWidth="827" pageHeight="1169">
  <root>
    <mxCell id="0"/>
    <mxCell id="1" parent="0"/>
    
    <!-- Start State -->
    <mxCell id="start" value="Landing Page" style="ellipse;whiteSpace=wrap;html=1;fillColor=#4F46E5;fontColor=white;strokeColor=white;" vertex="1" parent="1">
      <mxGeometry x="360" y="40" width="120" height="60" as="geometry"/>
    </mxCell>
    
    <!-- Join Game -->
    <mxCell id="join" value="Join Game\n(Enter game ID)" style="rounded=1;whiteSpace=wrap;html=1;fillColor=#4F46E5;fontColor=white;strokeColor=white;" vertex="1" parent="1">
      <mxGeometry x="360" y="140" width="120" height="60" as="geometry"/>
    </mxCell>
    
    <!-- Player Setup -->
    <mxCell id="player_setup" value="Player Setup\n(Name, flag, club)" style="rounded=1;whiteSpace=wrap;html=1;fillColor=#4F46E5;fontColor=white;strokeColor=white;" vertex="1" parent="1">
      <mxGeometry x="360" y="240" width="120" height="60" as="geometry"/>
    </mxCell>
    
    <!-- Lobby Wait -->
    <mxCell id="lobby_wait" value="Lobby Wait\n(See other players)" style="rounded=1;whiteSpace=wrap;html=1;fillColor=#4F46E5;fontColor=white;strokeColor=white;" vertex="1" parent="1">
      <mxGeometry x="360" y="340" width="120" height="60" as="geometry"/>
    </mxCell>
    
    <!-- Quiz Participation -->
    <mxCell id="quiz_part" value="Quiz Participation\n(Answer questions)" style="rounded=1;whiteSpace=wrap;html=1;fillColor=#4F46E5;fontColor=white;strokeColor=white;" vertex="1" parent="1">
      <mxGeometry x="360" y="440" width="120" height="60" as="geometry"/>
    </mxCell>
    
    <!-- Bell Interaction -->
    <mxCell id="bell_interact" value="Bell Interaction\n(Press buzzer)" style="rounded=1;whiteSpace=wrap;html=1;fillColor=#4F46E5;fontColor=white;strokeColor=white;" vertex="1" parent="1">
      <mxGeometry x="200" y="540" width="120" height="60" as="geometry"/>
    </mxCell>
    
    <!-- Score Display -->
    <mxCell id="score_display" value="Score Display\n(View points/ranking)" style="rounded=1;whiteSpace=wrap;html=1;fillColor=#4F46E5;fontColor=white;strokeColor=white;" vertex="1" parent="1">
      <mxGeometry x="520" y="540" width="120" height="60" as="geometry"/>
    </mxCell>
    
    <!-- Video Participation -->
    <mxCell id="video_part" value="Video Participation\n(See/speak in room)" style="rounded=1;whiteSpace=wrap;html=1;fillColor=#4F46E5;fontColor=white;strokeColor=white;" vertex="1" parent="1">
      <mxGeometry x="360" y="640" width="120" height="60" as="geometry"/>
    </mxCell>
    
    <!-- End State -->
    <mxCell id="end" value="Final Results\n& Exit" style="ellipse;whiteSpace=wrap;html=1;fillColor=#059669;fontColor=white;strokeColor=white;" vertex="1" parent="1">
      <mxGeometry x="360" y="740" width="120" height="60" as="geometry"/>
    </mxCell>
    
    <!-- Transitions -->
    <mxCell edge="1" parent="1" source="start" target="join">
      <mxGeometry relative="1" as="geometry"/>
    </mxCell>
    <mxCell edge="1" parent="1" source="join" target="player_setup">
      <mxGeometry relative="1" as="geometry"/>
    </mxCell>
    <mxCell edge="1" parent="1" source="player_setup" target="lobby_wait">
      <mxGeometry relative="1" as="geometry"/>
    </mxCell>
    <mxCell edge="1" parent="1" source="lobby_wait" target="quiz_part">
      <mxGeometry relative="1" as="geometry"/>
    </mxCell>
    <mxCell edge="1" parent="1" source="quiz_part" target="bell_interact">
      <mxGeometry relative="1" as="geometry"/>
    </mxCell>
    <mxCell edge="1" parent="1" source="quiz_part" target="score_display">
      <mxGeometry relative="1" as="geometry"/>
    </mxCell>
    <mxCell edge="1" parent="1" source="quiz_part" target="video_part">
      <mxGeometry relative="1" as="geometry"/>
    </mxCell>
    <mxCell edge="1" parent="1" source="bell_interact" target="end">
      <mxGeometry relative="1" as="geometry"/>
    </mxCell>
    <mxCell edge="1" parent="1" source="score_display" target="end">
      <mxGeometry relative="1" as="geometry"/>
    </mxCell>
    <mxCell edge="1" parent="1" source="video_part" target="end">
      <mxGeometry relative="1" as="geometry"/>
    </mxCell>
    
  </root>
</mxGraphModel>
  </diagram>
</mxfile>